<?xml version="1.0" standalone="no"?>
<!DOCTYPE svg PUBLIC "-//W3C//DTD SVG 20010904//EN"
 "http://www.w3.org/TR/2001/REC-SVG-20010904/DTD/svg10.dtd">
<svg version="1.0" xmlns="http://www.w3.org/2000/svg"
 width="900.000000pt" height="900.000000pt" viewBox="0 0 900.000000 900.000000"
 preserveAspectRatio="xMidYMid meet">
<metadata>
Created by potrace 1.14, written by Peter Selinger 2001-2017
</metadata>
<g transform="translate(0.000000,900.000000) scale(0.100000,-0.100000)"
fill="#000000" stroke="none">
<path d="M4235 8993 c-16 -2 -54 -8 -82 -14 -29 -6 -56 -11 -60 -11 -16 -1
-169 -58 -203 -75 -169 -88 -332 -261 -379 -405 -19 -57 -23 -86 -25 -178 -3
-150 50 -220 234 -311 59 -29 196 -66 273 -74 26 -2 47 -3 47 -2 0 1 3 40 7
86 l6 84 -59 -8 c-156 -21 -265 10 -345 97 -44 48 -49 90 -23 195 25 103 43
147 91 216 18 27 38 67 44 90 23 86 66 128 189 181 43 18 163 53 210 60 19 3
46 8 60 11 91 19 286 24 314 8 18 -10 5 -15 -371 -135 -51 -16 -96 -34 -99
-40 -4 -6 -3 -9 2 -6 5 3 32 9 59 13 28 3 66 9 85 12 19 2 51 6 70 8 19 2 69
6 110 10 148 15 248 7 418 -29 64 -14 182 -64 182 -77 0 -5 7 -9 15 -9 7 0 19
-8 24 -17 6 -10 11 -14 11 -10 0 16 101 -88 133 -137 36 -56 60 -116 47 -116
-5 0 -37 28 -72 61 -130 126 -211 176 -330 203 -58 14 -80 17 -180 31 -113 16
-330 21 -438 10 -91 -10 -221 -45 -292 -80 -135 -66 -212 -173 -211 -291 1
-93 60 -184 131 -204 56 -15 140 -23 160 -15 16 6 15 7 -3 18 -11 6 -22 12
-25 13 -3 0 -18 6 -35 13 -81 33 -134 106 -135 184 0 35 7 46 68 106 37 38 85
77 108 89 47 24 154 59 204 66 19 3 46 8 60 10 71 14 317 22 365 12 11 -2 47
-7 80 -11 104 -12 185 -35 270 -76 137 -66 168 -102 250 -295 26 -63 87 -146
122 -167 l31 -18 27 28 c57 60 84 139 85 253 2 101 -7 144 -42 212 -27 52
-117 155 -178 203 -94 75 -330 178 -460 201 -148 26 -209 31 -352 31 -90 -1
-176 -2 -193 -4z"/>
<path d="M5534 8469 c-5 -8 -9 -25 -11 -39 -1 -14 -4 -41 -7 -60 -3 -19 -8
-75 -12 -125 -3 -49 -8 -92 -9 -93 -2 -2 23 -36 55 -74 139 -166 122 -315 -34
-302 -71 6 -206 86 -206 122 0 7 -3 12 -7 12 -5 0 -13 10 -19 23 -198 399
-238 466 -261 443 -14 -14 -8 -112 11 -181 2 -5 7 -23 11 -40 36 -131 249
-367 448 -496 92 -60 38 -65 -97 -9 -42 18 -82 37 -89 44 -7 6 -24 17 -39 25
-16 8 -28 18 -28 23 0 4 -5 8 -10 8 -16 0 -114 90 -162 148 -32 39 -101 198
-140 322 -44 140 -57 172 -75 178 -22 7 -35 -50 -35 -158 0 -113 4 -149 23
-208 11 -34 64 -144 81 -167 4 -5 26 -35 49 -65 116 -154 266 -273 414 -330
49 -18 81 -23 175 -23 104 -1 120 1 173 25 59 28 135 96 160 145 32 61 40 129
36 288 -3 83 -88 240 -213 390 -100 120 -172 189 -182 174z"/>
<path d="M4440 8360 c0 -3 -57 -5 -128 -6 -151 -1 -198 -8 -212 -34 -11 -21
-20 -203 -34 -700 -8 -268 -16 -502 -21 -596 -5 -87 -4 -91 18 -101 13 -6 57
-9 98 -7 124 6 114 -3 116 110 1 54 2 99 3 99 1 0 3 194 5 430 6 579 12 701
36 716 25 15 145 -15 158 -40 26 -51 10 -737 -24 -1036 -7 -57 -17 -173 -19
-223 -2 -23 2 -47 9 -52 11 -10 192 -6 295 6 30 3 60 6 66 7 8 0 10 105 8 366
-5 449 -11 788 -18 900 -8 129 -30 150 -166 156 -41 2 -75 4 -75 5 0 1 -26 2
-58 3 -31 1 -57 0 -57 -3z"/>
<path d="M6148 8335 c-2 -2 -25 -5 -53 -8 -72 -8 -137 -26 -162 -45 l-21 -17
23 -45 c48 -93 68 -137 90 -202 13 -38 22 -68 20 -68 -3 0 0 -12 6 -27 14 -37
14 -175 0 -238 -28 -126 -141 -274 -241 -315 -14 -6 -32 -13 -40 -17 -76 -31
-300 -36 -396 -8 -68 20 -224 94 -224 106 0 5 -5 9 -11 9 -12 0 -66 42 -133
104 -22 19 -41 35 -42 33 -2 -1 -6 -25 -9 -52 -4 -28 -8 -61 -10 -75 -17 -102
-24 -339 -12 -404 17 -97 96 -156 137 -103 48 61 205 54 325 -13 32 -18 54
-23 85 -21 14 1 139 78 150 92 14 18 172 118 205 129 67 22 109 50 183 120
172 164 359 439 459 675 33 76 46 107 48 115 0 3 13 41 28 85 40 121 41 133 9
149 -15 7 -45 17 -67 21 -22 4 -51 9 -65 12 -25 5 -278 12 -282 8z"/>
<path d="M3774 7809 c-9 -10 -20 -16 -24 -14 -5 3 -10 2 -12 -2 -1 -5 -29 -21
-60 -38 -121 -62 -225 -191 -343 -423 -43 -85 -98 -222 -90 -222 3 0 0 -11 -5
-25 -5 -14 -12 -38 -15 -53 -2 -15 -7 -39 -10 -53 -5 -22 -1 -28 22 -37 76
-29 185 -34 253 -10 30 10 62 20 70 22 8 2 38 14 65 26 28 12 74 24 103 27 48
5 57 3 97 -26 25 -18 46 -27 46 -22 1 6 2 14 3 19 8 31 17 71 21 90 3 12 7 30
9 40 8 37 18 128 21 202 6 123 8 491 2 496 -5 6 -34 11 -94 18 -32 3 -46 0
-59 -15z"/>
<path d="M3131 7302 c-113 -102 -201 -191 -256 -257 -28 -33 -52 -62 -55 -65
-31 -31 -95 -129 -88 -134 4 -3 348 81 354 86 2 2 6 22 10 44 8 52 71 259 90
295 8 16 12 29 9 29 -3 0 1 13 10 29 26 51 3 42 -74 -27z"/>
<path d="M3675 6872 c-2 -2 -11 -5 -22 -6 -17 -3 -18 -15 -15 -182 5 -339 10
-516 15 -521 3 -2 33 -7 66 -10 l62 -6 -6 131 c-3 71 -8 227 -9 345 -2 118 -7
224 -11 236 -5 17 -13 20 -41 18 -20 -1 -37 -3 -39 -5z"/>
<path d="M5189 6848 c-1 -18 -3 -55 -4 -83 -6 -78 -14 -316 -15 -470 l-2 -140
50 -3 c46 -3 53 0 69 25 16 25 18 56 19 351 1 361 6 333 -73 347 l-43 7 -1
-34z"/>
<path d="M3213 6813 c-44 -8 -46 -21 -49 -287 -1 -140 0 -265 3 -279 5 -25 38
-39 103 -41 l25 -1 0 245 c0 230 -5 344 -15 353 -10 9 -46 14 -67 10z"/>
<path d="M3913 6810 c-45 -3 -85 -9 -89 -13 -7 -7 -8 -87 -1 -93 4 -5 220 -14
432 -20 292 -7 782 -16 833 -15 22 1 23 4 20 74 l-3 72 -555 0 c-305 0 -592
-2 -637 -5z"/>
<path d="M5664 6809 c-11 -19 -26 -541 -16 -581 3 -14 15 -18 49 -18 83 0 79
-14 77 272 -3 265 -5 293 -27 315 -16 16 -75 25 -83 12z"/>
<path d="M2892 6753 c-5 -10 -8 -92 -7 -183 3 -236 7 -293 18 -307 5 -7 25
-13 44 -13 l35 0 -6 168 c-6 164 -13 268 -20 307 -3 11 -5 26 -5 33 -1 18 -49
14 -59 -5z"/>
<path d="M5989 6763 c0 -5 -2 -17 -4 -28 -5 -27 -14 -172 -20 -318 -3 -65 -7
-123 -11 -128 -3 -5 0 -9 7 -9 9 0 9 -3 0 -14 -16 -19 0 -27 38 -20 53 11 55
17 55 252 0 249 -3 272 -39 272 -14 0 -25 -3 -26 -7z"/>
<path d="M2763 6695 c-26 -11 -33 -20 -34 -42 -8 -273 -7 -292 15 -299 12 -4
22 -6 23 -6 2 1 19 -6 38 -14 32 -13 36 -13 41 1 10 24 -17 319 -32 359 -7 19
-10 19 -51 1z"/>
<path d="M6133 6701 c-12 -7 -21 -61 -29 -176 -10 -135 -10 -169 -2 -187 8
-17 11 -17 51 -1 23 9 47 20 52 24 11 8 12 315 2 325 -10 10 -65 21 -74 15z"/>
<path d="M2564 6592 c-4 -15 -8 -29 -9 -32 -1 -3 -9 -23 -18 -44 -24 -55 -45
-132 -51 -193 -3 -28 -13 -84 -22 -125 -28 -122 -31 -160 -20 -235 7 -48 13
-102 21 -185 3 -31 8 -67 10 -80 3 -13 8 -43 11 -68 11 -81 104 -318 165 -417
37 -61 164 -226 196 -254 97 -86 346 -213 443 -225 19 -2 49 -6 65 -9 88 -14
257 -13 307 1 72 21 148 57 179 86 26 23 27 26 34 193 3 94 8 181 9 195 3 31
-11 61 -27 58 -33 -6 -185 57 -234 97 -7 6 -19 16 -27 23 -8 6 -19 12 -24 12
-4 0 -17 8 -28 18 -10 9 -39 31 -64 47 -70 47 -134 115 -193 206 -46 72 -98
162 -102 179 -1 3 -7 19 -15 35 -18 42 -48 121 -67 175 -19 55 -14 51 -60 56
-57 6 -155 25 -178 33 -162 62 -246 145 -259 258 -13 104 -19 170 -18 190 2
33 -15 37 -24 5z"/>
<path d="M3357 6482 l-37 -3 5 -42 c3 -23 7 -63 10 -88 3 -26 7 -53 10 -62 5
-13 64 -37 105 -42 8 -2 29 -6 45 -9 17 -4 44 -9 61 -12 l31 -5 -3 118 c-1 65
-2 123 -3 128 -1 6 -25 11 -58 10 -32 0 -74 2 -93 5 -19 3 -52 4 -73 2z"/>
<path d="M3814 6458 c3 -18 8 -66 11 -106 9 -112 13 -116 145 -127 206 -17
1071 -29 1114 -15 20 7 23 24 29 183 3 72 2 77 -17 78 -62 4 -224 9 -246 8
-14 0 -29 0 -35 0 -5 0 -234 3 -508 6 l-497 7 4 -34z"/>
<path d="M5383 6480 c-23 -6 -25 -14 -31 -142 -4 -108 -3 -113 29 -110 73 8
206 36 215 45 4 4 13 70 19 140 6 65 6 67 -17 68 -103 4 -200 3 -215 -1z"/>
<path d="M2341 6232 c-6 -11 -34 -103 -61 -204 -28 -101 -58 -208 -67 -238
-23 -74 -20 -65 -43 -155 -11 -44 -22 -93 -25 -110 -3 -16 -7 -41 -10 -55 -35
-186 -48 -394 -30 -475 25 -114 99 -288 166 -386 101 -150 269 -330 386 -411
43 -30 97 -72 121 -94 39 -35 49 -39 100 -40 31 -1 71 -5 87 -9 17 -4 35 -8
40 -9 6 -1 37 -10 70 -20 69 -21 201 -28 272 -15 26 5 62 12 78 15 39 6 108
30 170 59 28 13 66 30 85 38 19 8 61 39 94 70 67 65 60 35 72 336 l6 164 -23
-6 c-13 -3 -49 -13 -79 -22 -105 -30 -196 -39 -395 -38 -155 0 -162 1 -225 30
-83 38 -194 126 -343 272 -178 175 -266 301 -332 476 -27 72 -60 201 -70 270
-3 23 -8 52 -11 65 -3 14 -7 132 -9 263 -2 132 -6 241 -8 244 -3 3 -10 -4 -16
-15z"/>
<path d="M4080 6116 c-4 -12 -11 -67 -14 -121 -4 -55 -9 -122 -12 -150 -2 -27
-7 -90 -10 -140 -5 -92 -8 -148 -19 -315 -3 -52 -8 -133 -11 -180 -10 -175
-13 -215 -14 -215 0 0 -3 -36 -4 -80 -2 -44 -7 -127 -10 -185 -4 -58 -9 -139
-11 -180 -3 -41 -7 -111 -10 -155 -3 -44 -7 -125 -10 -180 -3 -55 -8 -131 -10
-170 -2 -38 -7 -124 -10 -190 -11 -206 -13 -223 -20 -234 -3 -6 -1 -11 5 -11
6 0 9 -4 5 -9 -6 -11 -15 -167 -30 -546 -3 -71 -8 -166 -10 -210 -3 -44 -7
-127 -10 -185 -3 -58 -7 -130 -9 -160 -3 -30 -8 -93 -11 -139 -4 -47 -8 -92
-10 -100 -2 -9 -6 -45 -10 -81 -16 -149 -63 -326 -104 -390 -40 -62 -107 -114
-163 -126 -83 -17 -112 -20 -189 -18 -115 3 -225 20 -307 48 -58 20 -250 113
-307 149 -128 80 -240 166 -344 261 -97 90 -271 266 -271 274 0 5 53 27 118
47 145 47 223 80 287 121 112 71 249 233 269 316 7 32 -7 39 -109 53 -87 11
-103 14 -170 29 -220 51 -512 172 -735 305 -58 35 -107 66 -110 69 -3 4 -25
21 -50 37 -25 17 -97 82 -160 145 -137 136 -200 226 -315 450 -45 86 -86 150
-95 145 -4 -2 -13 -33 -20 -67 -6 -35 -16 -76 -21 -93 -5 -16 -11 -50 -14 -74
-3 -23 -7 -46 -9 -50 -2 -3 -7 -28 -10 -55 -4 -27 -9 -53 -11 -57 -3 -3 -7
-26 -10 -50 -2 -24 -7 -55 -9 -69 -14 -71 -19 -170 -20 -425 -1 -297 2 -333
38 -488 9 -37 18 -81 21 -99 3 -17 8 -34 10 -38 2 -3 6 -19 9 -34 3 -15 11
-49 19 -74 8 -26 25 -81 37 -122 61 -207 116 -339 175 -421 19 -27 35 -52 35
-55 0 -3 6 -12 12 -19 7 -8 18 -20 23 -27 57 -74 132 -155 184 -201 38 -33 97
-68 104 -60 3 2 3 26 -1 51 -9 66 -9 312 1 345 4 15 13 27 21 27 22 0 161
-158 313 -358 100 -130 286 -320 463 -473 36 -30 103 -84 150 -120 47 -35 87
-67 88 -71 2 -5 8 -8 14 -8 6 0 23 -11 39 -25 78 -65 408 -254 534 -306 44
-19 300 -113 410 -152 90 -32 199 -74 252 -98 24 -10 47 -19 51 -19 14 0 210
-103 286 -149 82 -51 119 -77 159 -113 52 -47 57 -21 17 100 -30 91 -97 206
-165 283 -38 42 -137 126 -190 161 -66 43 -175 108 -181 108 -3 0 -20 10 -37
22 -18 13 -34 23 -37 22 -3 0 -54 23 -115 52 -60 28 -157 70 -215 94 -181 73
-273 112 -325 138 -27 15 -52 26 -55 27 -3 0 -52 27 -109 60 -57 33 -126 73
-154 88 -62 35 -214 136 -287 190 -78 59 -128 103 -275 247 -166 161 -397 403
-585 610 -121 134 -163 173 -171 158 -4 -7 -9 -42 -12 -78 -8 -94 -30 -180
-46 -180 -29 0 -83 120 -117 260 -2 8 -13 49 -24 90 -12 41 -23 84 -25 95 -4
17 -8 35 -20 85 -1 3 -7 32 -14 65 -7 33 -16 74 -21 90 -5 17 -11 41 -14 55
-2 14 -9 45 -15 70 -21 94 -78 419 -87 495 -8 74 -12 262 -6 293 5 23 5 23 18
-5 7 -15 35 -98 63 -183 28 -85 56 -163 61 -172 6 -10 10 -22 10 -28 0 -6 8
-29 19 -53 30 -68 46 -111 43 -119 -1 -5 3 -8 8 -8 6 0 10 -4 10 -10 0 -5 13
-39 30 -75 16 -36 30 -70 30 -74 0 -5 3 -11 8 -13 4 -1 25 -39 46 -83 72 -146
175 -313 327 -530 54 -76 227 -292 288 -359 138 -150 373 -377 467 -452 58
-45 162 -114 173 -114 5 0 11 -4 13 -8 5 -13 264 -152 305 -165 10 -3 56 -20
103 -37 47 -18 90 -33 95 -34 15 -3 248 -76 265 -83 8 -3 20 -7 25 -8 6 -2 66
-20 135 -40 130 -39 190 -51 190 -40 0 3 -13 25 -29 48 -41 61 -75 131 -105
221 -40 121 -49 182 -34 227 11 31 76 70 120 71 36 1 70 -32 209 -203 43 -54
83 -100 88 -103 9 -6 38 137 46 229 3 28 7 61 10 75 3 14 7 54 10 90 11 150
15 198 20 260 20 247 41 721 60 1350 23 779 36 2773 18 2791 -5 5 -30 12 -54
14 -121 14 -120 14 -129 -9z"/>
<path d="M4520 6112 c-24 -2 -47 -7 -50 -12 -3 -5 -5 -37 -4 -72 5 -154 16
-926 19 -1258 2 -201 6 -601 10 -890 3 -289 8 -718 10 -955 5 -463 15 -1253
19 -1479 l2 -139 54 -49 c51 -46 169 -111 221 -122 13 -3 38 -8 54 -11 17 -3
48 -10 70 -15 45 -11 90 -12 65 -3 -8 3 -17 9 -20 12 -3 3 -32 19 -65 36 -32
16 -85 50 -116 75 -93 74 -110 118 -73 190 30 59 69 102 133 145 59 41 102 53
134 37 12 -6 82 -38 155 -71 114 -52 155 -67 227 -87 90 -25 252 -34 329 -20
101 19 145 29 179 42 20 7 38 14 40 13 16 -4 218 92 312 148 222 132 511 377
740 625 145 157 300 392 454 688 65 125 129 263 226 485 36 82 125 312 125
323 0 7 5 10 11 7 12 -8 0 -123 -23 -210 -5 -22 -11 -47 -13 -55 -2 -8 -10
-41 -20 -72 -9 -32 -16 -60 -16 -63 0 -2 -9 -28 -20 -57 -11 -29 -22 -61 -24
-70 -17 -77 -226 -537 -254 -558 -3 -3 -12 -16 -19 -30 -6 -14 -17 -34 -24
-45 -7 -11 -22 -36 -34 -55 -27 -45 -195 -300 -211 -320 -6 -8 -37 -49 -68
-89 -197 -265 -390 -460 -630 -641 -22 -16 -44 -33 -50 -37 -135 -105 -569
-320 -770 -383 -22 -7 -46 -18 -54 -24 -8 -6 -17 -10 -20 -8 -3 1 -44 -10 -90
-24 -47 -14 -89 -27 -95 -28 -6 -1 -20 -5 -31 -9 -11 -3 -31 -9 -45 -12 -14
-3 -54 -12 -90 -20 -109 -24 -160 -30 -285 -30 -116 0 -123 1 -188 33 -51 25
-79 48 -115 92 -26 32 -50 59 -54 59 -15 2 7 -1078 22 -1093 8 -8 35 10 117
80 52 45 64 54 72 54 5 0 11 4 13 8 7 19 226 153 296 181 17 7 32 17 32 22 0
5 4 8 8 6 5 -1 35 10 68 25 104 46 126 55 304 117 96 34 189 68 207 76 17 8
34 15 37 15 3 0 58 24 121 54 334 158 774 473 1035 738 102 105 101 104 145
163 17 22 33 42 37 45 15 12 218 315 261 390 14 25 34 57 45 70 l20 25 13 -30
c27 -66 47 -195 62 -397 3 -40 12 -42 39 -6 78 103 308 515 308 553 0 7 7 18
15 25 8 7 15 19 15 27 0 8 8 33 19 56 23 52 72 183 75 200 1 6 9 35 18 62 40
126 61 211 73 295 15 100 24 151 30 160 3 5 1 10 -5 10 -7 0 -8 6 -1 18 10 19
8 364 -3 417 -6 28 -12 64 -22 125 -3 14 -7 37 -10 52 -3 15 -5 30 -5 33 0 2
-11 38 -23 79 -13 41 -21 78 -18 81 3 3 1 5 -5 5 -5 0 -10 6 -10 14 0 25 -88
222 -104 231 -4 3 -20 -16 -36 -42 -15 -27 -31 -49 -35 -51 -4 -2 -8 -8 -8
-13 0 -22 -271 -420 -291 -427 -5 -2 -9 -8 -9 -14 0 -24 -146 -179 -235 -251
-91 -72 -280 -180 -355 -202 -14 -4 -29 -11 -35 -15 -18 -12 -247 -87 -296
-96 -48 -9 -276 -67 -286 -73 -30 -16 90 -165 185 -230 90 -60 237 -129 314
-145 34 -8 223 -46 226 -46 32 0 -155 -201 -299 -321 -117 -96 -345 -268 -369
-277 -8 -3 -17 -9 -20 -13 -7 -10 -208 -128 -250 -146 -91 -40 -147 -50 -274
-51 -78 -1 -156 4 -199 13 -92 19 -224 84 -281 138 -38 35 -92 127 -100 170
-3 14 -19 90 -21 97 -1 3 -5 28 -9 55 -4 28 -10 61 -12 75 -9 54 -31 272 -39
385 -3 39 -7 95 -10 125 -8 86 -18 260 -29 490 -4 74 -9 171 -11 215 -3 44 -7
130 -10 190 -3 61 -8 137 -10 170 -2 33 -6 101 -9 150 -3 50 -8 117 -11 150
-3 33 -7 96 -10 140 -3 44 -7 100 -10 125 -5 45 -12 135 -20 260 -5 71 -11
153 -20 270 -3 41 -7 109 -10 150 -2 41 -7 104 -10 140 -12 151 -15 199 -20
280 -7 101 -14 185 -15 185 0 0 -3 38 -6 85 -2 47 -6 110 -9 140 -3 30 -7 93
-11 140 -3 47 -10 89 -15 95 -9 9 -243 14 -339 7z"/>
<path d="M3377 6104 c-1 -1 -20 -4 -42 -8 -60 -8 -98 -16 -107 -22 -20 -13 2
-59 55 -119 29 -31 48 -72 68 -149 11 -39 27 -84 36 -101 19 -36 130 -134 216
-191 34 -23 81 -62 104 -88 l42 -46 70 0 c50 0 71 4 72 13 0 6 2 21 4 32 2 10
7 73 10 140 4 66 8 138 10 160 3 22 8 90 11 150 4 61 8 124 9 140 3 43 -2 47
-40 26 -28 -15 -53 -18 -137 -16 -96 3 -108 5 -182 40 -61 29 -93 38 -138 40
-32 0 -60 0 -61 -1z"/>
<path d="M5018 6013 c-10 -17 -1 -122 11 -137 7 -9 38 -27 70 -41 31 -14 63
-30 71 -34 9 -5 31 -12 49 -16 31 -7 33 -6 26 16 -10 30 -83 181 -93 190 -4 4
-18 10 -32 12 -14 3 -41 8 -61 12 -20 4 -39 3 -41 -2z"/>
<path d="M5330 5608 c-25 -4 -54 -9 -65 -12 -47 -11 -139 -62 -203 -113 -25
-21 -25 2 -7 -273 10 -160 34 -453 40 -487 6 -34 13 -42 37 -38 35 7 39 19 31
76 -5 30 -8 107 -8 171 1 102 5 124 26 170 13 29 30 59 36 66 7 7 13 17 13 22
0 17 158 169 216 208 104 70 176 97 280 107 32 3 62 9 67 14 11 11 -23 39 -53
44 -14 3 -43 9 -65 15 -38 10 -60 13 -170 27 -85 10 -128 11 -175 3z"/>
<path d="M5775 5472 c-16 -1 -54 -7 -82 -13 -29 -6 -54 -9 -55 -8 -7 5 -149
-76 -199 -114 -104 -78 -189 -166 -189 -196 0 -6 -4 -11 -8 -11 -5 0 -17 -26
-27 -57 -25 -78 -29 -241 -8 -297 18 -46 66 -95 115 -119 40 -19 46 -12 54 65
20 208 139 374 336 466 126 59 219 79 359 75 68 -1 141 -4 162 -7 51 -5 39 8
-76 85 -167 112 -260 143 -382 131z"/>
<path d="M5839 5195 c-90 -24 -188 -85 -273 -171 -98 -99 -108 -111 -126 -154
-19 -47 -21 -56 -21 -120 0 -68 9 -94 53 -144 42 -49 56 -45 96 26 30 52 128
158 169 181 33 20 148 81 153 82 3 1 14 5 25 9 58 22 73 27 100 31 17 2 46 6
66 9 20 3 79 7 130 8 92 2 96 1 179 -39 199 -96 214 -102 229 -88 12 11 8 20
-21 57 -20 24 -48 63 -64 88 -61 95 -112 146 -197 197 l-62 37 -195 2 c-126 1
-211 -3 -241 -11z"/>
<path d="M6035 4889 c-88 -16 -275 -115 -351 -185 -59 -55 -94 -114 -94 -158
0 -46 41 -143 64 -152 9 -3 46 15 88 45 129 89 174 101 373 106 160 3 191 -10
268 -115 68 -94 122 -136 261 -206 72 -37 148 -78 168 -90 38 -25 45 -23 42
11 -9 111 -60 313 -106 424 -35 83 -92 149 -163 189 -105 58 -215 109 -261
120 -59 15 -231 22 -289 11z"/>
<path d="M2063 4603 c6 -162 11 -223 23 -308 3 -22 8 -53 10 -68 2 -15 5 -44
8 -65 3 -20 8 -62 12 -92 9 -75 11 -86 30 -144 18 -56 67 -154 98 -201 28 -39
138 -150 201 -200 28 -22 52 -42 55 -45 7 -8 68 -52 125 -91 71 -50 239 -115
320 -125 11 -1 43 -6 70 -10 62 -9 332 -10 400 -1 72 9 106 15 143 26 18 5 35
10 37 10 24 4 119 59 153 89 l43 37 5 110 c2 61 6 139 9 175 2 36 6 128 10
205 3 77 7 157 8 178 1 20 1 37 -1 37 -3 0 -39 -28 -81 -61 -101 -81 -228
-139 -346 -156 -123 -19 -377 -8 -410 17 -5 4 -35 15 -65 25 -30 10 -61 22
-67 28 -7 5 -13 7 -13 4 0 -9 -157 71 -210 106 -50 34 -249 230 -295 292 -16
22 -32 42 -35 45 -3 3 -17 21 -30 40 -14 19 -33 44 -43 55 -32 34 -93 127
-126 193 -17 34 -34 62 -37 62 -4 0 -4 -75 -1 -167z"/>
<path d="M5287 4580 c-40 -12 -135 -77 -154 -106 -9 -14 -16 -42 -15 -62 2
-91 6 -122 18 -122 6 0 31 18 55 40 94 87 169 110 256 81 103 -35 122 -5 46
75 -81 84 -142 112 -206 94z"/>
<path d="M6127 4494 c-1 -1 -31 -4 -67 -8 -145 -14 -215 -37 -292 -95 -53 -41
-78 -82 -72 -120 2 -14 6 -40 9 -57 9 -51 36 -68 97 -60 155 20 223 19 282 -3
64 -24 62 -22 130 -106 27 -33 75 -88 107 -123 32 -35 71 -84 86 -108 137
-220 167 -256 293 -344 44 -31 57 -45 79 -95 l19 -40 11 29 c6 16 14 45 17 65
3 20 8 50 10 66 24 136 35 406 21 475 -17 82 -55 115 -252 215 -100 51 -152
95 -282 238 l-62 68 -65 2 c-37 2 -67 2 -69 1z"/>
<path d="M5322 4349 c-48 -27 -106 -80 -123 -111 -15 -28 8 -31 78 -8 81 26
132 24 198 -8 48 -23 155 -122 155 -143 0 -6 5 -7 10 -4 6 4 8 9 6 13 -2 4 -7
32 -11 62 -7 58 -44 143 -74 172 -33 30 -110 59 -152 56 -22 -1 -61 -14 -87
-29z"/>
<path d="M5356 4202 c-2 -4 -18 -9 -34 -10 -60 -4 -132 -46 -132 -77 0 -10 12
-12 48 -7 75 8 115 7 165 -7 77 -22 165 -112 172 -176 4 -34 5 -35 20 -29 8 3
19 21 25 40 11 33 9 42 -30 119 -66 129 -75 137 -149 141 -34 2 -66 6 -71 9
-5 3 -11 2 -14 -3z"/>
<path d="M5868 4105 c-2 -2 -16 -5 -33 -8 -82 -14 -125 -62 -125 -140 0 -43 4
-54 33 -81 21 -20 65 -42 118 -60 46 -16 89 -32 94 -36 6 -4 21 -11 35 -15 54
-16 171 -111 230 -185 28 -35 50 -115 65 -235 3 -27 10 -75 15 -105 5 -30 11
-69 13 -86 3 -17 12 -47 22 -67 l16 -35 67 16 c37 8 123 33 192 56 l125 41 -2
70 c-2 115 -5 127 -44 165 -20 19 -42 40 -50 45 -79 56 -158 129 -159 148 0 4
-8 20 -18 35 -10 15 -45 67 -78 117 -32 49 -66 97 -74 105 -8 9 -28 32 -43 51
-15 18 -57 64 -93 100 -52 53 -76 70 -120 84 -48 15 -177 29 -186 20z"/>
<path d="M5318 4064 c-2 -1 -32 -5 -68 -8 -120 -9 -129 -26 -38 -77 103 -57
108 -71 110 -281 1 -105 4 -128 16 -128 18 0 126 109 166 168 78 113 -13 329
-139 329 -25 0 -46 -1 -47 -3z"/>
<path d="M5156 3893 c2 -38 6 -99 9 -138 2 -38 7 -104 11 -145 3 -41 6 -83 6
-92 -1 -26 17 -32 34 -12 49 63 69 145 67 281 0 75 -23 119 -79 150 -21 13
-42 23 -46 23 -4 0 -5 -30 -2 -67z"/>
<path d="M5723 3789 c-11 -11 -33 -17 -68 -18 -22 -1 -112 -92 -167 -168 -40
-56 -38 -63 17 -78 17 -5 32 -9 35 -10 3 -1 31 -7 64 -15 71 -17 123 -64 209
-192 114 -170 149 -284 150 -483 1 -142 -2 -169 -33 -264 -45 -141 -117 -286
-215 -433 -27 -41 -20 -48 21 -21 14 9 59 31 100 49 110 48 213 115 290 191
73 71 166 179 184 213 13 24 8 33 -73 119 -31 34 -66 80 -78 103 -51 100 -25
210 56 236 22 7 45 14 52 17 10 3 9 13 -2 44 -18 51 -27 106 -39 241 -9 93
-15 141 -22 175 -6 27 -38 79 -69 112 -13 13 -121 83 -129 83 -3 0 -42 18 -88
39 -154 73 -175 80 -195 60z"/>
<path d="M2270 3536 c0 -32 73 -227 95 -256 7 -8 25 -37 41 -65 15 -27 31 -52
34 -55 3 -3 10 -14 16 -24 24 -45 56 -59 155 -71 30 -3 62 -8 71 -11 19 -6 36
-10 103 -25 57 -13 132 -53 143 -78 16 -31 2 -155 -24 -217 -14 -33 -19 -72
-8 -62 3 4 36 -4 72 -16 37 -13 96 -28 132 -34 36 -7 79 -15 95 -18 17 -3 94
-8 172 -11 218 -8 372 21 374 71 0 12 2 30 4 40 5 27 23 353 28 510 2 64 -8
76 -46 59 -12 -6 -49 -21 -82 -33 -33 -13 -98 -41 -143 -62 -132 -61 -168 -64
-367 -33 -115 17 -361 80 -379 97 -6 4 -18 8 -29 8 -21 0 -123 49 -170 82 -35
24 -229 178 -237 189 -3 3 -15 11 -27 18 -19 10 -23 9 -23 -3z"/>
<path d="M5334 3460 c-27 -9 -70 -27 -97 -40 -47 -22 -47 -22 -30 -45 10 -12
47 -58 83 -103 36 -44 74 -98 85 -119 10 -21 24 -45 31 -53 33 -43 46 -127 48
-325 l2 -160 -44 -102 c-24 -57 -66 -146 -93 -199 -27 -53 -49 -107 -49 -120
0 -27 39 -142 70 -204 4 -8 16 -16 26 -18 22 -3 110 33 119 48 4 6 11 8 16 5
5 -4 9 -2 9 4 0 5 9 12 20 16 27 9 150 130 188 186 67 100 158 321 178 434 12
67 6 243 -11 335 -11 58 -54 164 -86 215 -37 59 -142 164 -184 185 -16 8 -32
18 -35 21 -7 7 -89 40 -115 45 -57 12 -86 10 -131 -6z"/>
<path d="M5196 3254 c-3 -12 -4 -52 0 -90 7 -83 10 -134 18 -284 4 -63 9 -141
11 -173 3 -32 7 -111 11 -175 3 -64 7 -128 8 -142 2 -14 4 -35 5 -48 0 -13 5
-21 10 -17 29 18 99 191 116 290 14 74 13 261 -1 341 -16 94 -67 201 -129 270
-38 43 -43 46 -49 28z"/>
<path d="M4359 2959 c-1 -143 -9 -345 -24 -631 -5 -81 -4 -86 14 -81 10 2 23
15 29 27 14 31 2 739 -13 754 -3 3 -5 -28 -6 -69z"/>
<path d="M2889 2571 c49 -68 244 -220 414 -323 75 -45 91 -57 125 -85 28 -24
95 -42 176 -49 26 -2 57 -6 66 -9 31 -10 37 28 56 353 l5 82 -28 0 c-15 0 -57
-7 -93 -14 -42 -9 -114 -13 -205 -11 -174 4 -186 6 -371 49 -84 20 -155 36
-158 36 -4 0 2 -13 13 -29z"/>
</g>
</svg>
